<?xml version="1.0" encoding="utf-8"?>
<!-- Generator: Adobe Illustrator 24.2.3, SVG Export Plug-In . SVG Version: 6.00 Build 0)  -->
<svg version="1.1" id="Layer_1" xmlns="http://www.w3.org/2000/svg" xmlns:xlink="http://www.w3.org/1999/xlink" x="0px" y="0px"
	 viewBox="0 0 445.8 352.2" style="enable-background:new 0 0 445.8 352.2;" xml:space="preserve">
<style type="text/css">
	.st0{fill:none;stroke:#FFFFFF;stroke-miterlimit:10;}
	.st1{fill:#2A77BD;}
	.st2{fill:#F15F24;}
	.st3{fill:none;stroke:#F9F9FA;stroke-width:3;stroke-miterlimit:10;}
	.st4{fill:#F9F9FA;stroke:#F9F9FA;stroke-width:3;stroke-miterlimit:10;}
	.st5{fill:#27265F;}
	.st6{clip-path:url(#SVGID_2_);}
	.st7{fill:#BFBFBF;stroke:#FFFFFF;stroke-miterlimit:10;}
	.st8{fill:none;stroke:#FFFFFF;stroke-width:3;stroke-miterlimit:10;}
	.st9{fill:#FFFFFF;stroke:#FFFFFF;stroke-width:2;stroke-miterlimit:10;}
	.st10{fill:none;stroke:#FFFFFF;stroke-width:5;stroke-miterlimit:10;}
	.st11{fill:#FFFFFF;}
	.st12{fill:none;stroke:#333333;stroke-width:5;stroke-miterlimit:10;}
	.st13{fill:#26265F;}
	.st14{fill:none;stroke:#F15F25;stroke-width:3;stroke-miterlimit:10;}
	.st15{font-family:'Oswald-Light';}
	.st16{font-size:2.78px;}
	.st17{font-family:'Oswald-Regular';}
	.st18{font-size:4.17px;}
</style>
<path class="st0" d="M218.6,186.1"/>
<circle class="st1" cx="323.2" cy="173.4" r="119.8"/>
<path class="st2" d="M323.2,53.6c-65.9,0-119.3,52.4-119.8,117.2l239.5,0.4C442.8,106.2,389.2,53.6,323.2,53.6z"/>
<path class="st3" d="M382.7,170.9c0,0,3,30-31.6,30"/>
<path class="st3" d="M396.4,171.1c0,0,3.4,40.8-42.4,40.8"/>
<polygon class="st4" points="290.7,134 296.8,127.9 306.9,138 297.3,144.1 "/>
<polygon class="st4" points="345.3,134.7 351.4,128.6 361.5,138.7 351.8,144.8 "/>
<path class="st3" d="M279.3,171c0,0-1.6,19.5,19.5,19.5l49.1,0.1c21.9,0,21.2-19.5,21.2-19.5"/>
<path class="st3" d="M265.8,170.9c0,0-3.3,30,30,30"/>
<path class="st3" d="M252.2,171c0,0-3.3,40.8,40.8,40.8"/>
<polygon class="st5" points="236,170.9 236,134 266,104 295.8,133.8 309.6,119.9 324.1,134.4 338.3,120.1 353,134.8 382.8,105 
	410.4,132.6 410.4,171.2 "/>
<g>
	<defs>
		<circle id="SVGID_1_" cx="323.2" cy="173.4" r="119.8"/>
	</defs>
	<clipPath id="SVGID_2_">
		<use xlink:href="#SVGID_1_"  style="overflow:visible;"/>
	</clipPath>
	<g class="st6">
		<polyline class="st7" points="272.6,293.9 301.9,171.2 345.9,171.2 375.2,296.1 275.1,294.5 		"/>
		<line class="st8" x1="252.2" y1="176.1" x2="203.5" y2="176.1"/>
		<line class="st8" x1="253.4" y1="183.4" x2="205.4" y2="195.3"/>
		<line class="st8" x1="257.1" y1="193.3" x2="210.9" y2="216.1"/>
		<line class="st8" x1="262.6" y1="200.9" x2="224.1" y2="240.7"/>
		<line class="st8" x1="274" y1="208.5" x2="247" y2="265.8"/>
		<line class="st8" x1="397.1" y1="176.1" x2="445.8" y2="176.1"/>
		<line class="st8" x1="395.9" y1="183.4" x2="443.9" y2="195.3"/>
		<line class="st8" x1="392.2" y1="193.3" x2="438.3" y2="216.1"/>
		<line class="st8" x1="386.6" y1="200.9" x2="425.2" y2="240.7"/>
		<line class="st8" x1="375.2" y1="208.5" x2="402.2" y2="265.8"/>
		<polygon class="st9" points="260.1,280.1 290.4,259.8 300.3,265.7 319.3,258.4 330.5,265.3 344.1,256.6 368.2,272.5 374.1,269.6 
			386.3,282.8 261,282.8 		"/>
		<polygon class="st9" points="261,281.3 290.9,271 300.5,274 319.3,270.3 330.3,273.8 343.7,269.4 367.5,277.5 373.3,276 
			385.5,295 261.9,293.1 		"/>
	</g>
</g>
<circle class="st10" cx="323.2" cy="173.4" r="119.8"/>
<rect x="301.9" y="146.3" class="st11" width="44" height="25"/>
<polygon class="st11" points="266,110.9 251.1,124.9 280.9,124.9 "/>
<polygon class="st11" points="382.7,110.9 367.7,124.9 397.6,124.9 "/>
<rect x="250.6" y="140.7" class="st11" width="3.2" height="30.2"/>
<rect x="277.7" y="140.8" class="st11" width="3.2" height="30.2"/>
<rect x="264.2" y="140.7" class="st11" width="3.2" height="30.2"/>
<rect x="367.5" y="140.9" class="st11" width="3.2" height="30.2"/>
<rect x="394.6" y="141" class="st11" width="3.2" height="30.2"/>
<rect x="381.1" y="140.9" class="st11" width="3.2" height="30.2"/>
<rect x="240.9" y="140.1" class="st11" width="164.7" height="1.6"/>
<path class="st12" d="M236,170.9"/>
<path class="st3" d="M302.3,134.2l6.3-6.3c0.6-0.6,1.6-0.6,2.2,0c0,0,0,0,0,0l6.3,6.3"/>
<path class="st3" d="M331.2,134.2l6.3-6.3c0.6-0.6,1.6-0.6,2.2,0c0,0,0,0,0,0l6.3,6.3"/>
<path class="st13" d="M322.8,233.1c29.5,0,27-65.7,27-65.7l-26.2-5.6l-27,5.6c0,0-2.5,65.7,27,65.7"/>
<path class="st14" d="M322.8,233.1c29.5,0,27-65.7,27-65.7l-26.2-5.6l-27,5.6c0,0-2.5,65.7,27,65.7"/>
<line class="st14" x1="301.5" y1="211.5" x2="344.6" y2="211.5"/>
<text transform="matrix(1 0 0 1 311.55 218.92)" class="st11 st15 st16">SOIS BELLE </text>
<text transform="matrix(1 0 0 1 323.06 218.92)" class="st11 st15 st16">A</text>
<text transform="matrix(1 0 0 1 324.22 218.92)" class="st11 st15 st16">’ </text>
<text transform="matrix(1 0 0 1 325.27 218.92)" class="st11 st15 st16">T</text>
<text transform="matrix(1 0 0 1 326.35 218.92)" class="st11 st15 st16">A </text>
<text transform="matrix(1 0 0 1 328.25 218.92)" class="st11 st15 st16">F</text>
<text transform="matrix(1 0 0 1 329.23 218.92)" class="st11 st15 st16">A</text>
<text transform="matrix(1 0 0 1 330.55 218.92)" class="st11 st15 st16">CON</text>
<text transform="matrix(1 0 0 1 314.96 224.04)" class="st11 st17 st18">MCMLXXVI</text>
<path id="Shape" class="st11" d="M339.6,174.1c-0.3-0.8-0.9-1.3-1.7-1.6c-0.8-0.2-1.6-0.1-2.3,0.3l-7.3,5.1c-3.3-1.4-7-1.4-10.2,0
	l-7.3-5.2c-0.7-0.4-1.5-0.5-2.3-0.3c-0.8,0.3-1.4,0.8-1.7,1.6c-1.1,2.6-0.6,5.4,1.6,8.9c-1.9,3.2-2.6,7.9-1.8,12.5
	c0.1,0.4,0.3,0.7,0.7,0.9c0.4,0.1,0.8,0.1,1.1-0.1c0.1,3,1.2,5.8,3.1,8c0.2,0.2,0.5,0.4,0.8,0.4c0.5,0,0.6-0.2,2.2-1.4
	c0.8,0.4,1.6,0.8,2.4,1.2c3.8,2.4,8.7,2.4,12.6,0c0.8-0.5,1.6-0.9,2.4-1.2c1.6,1.2,1.7,1.4,2.2,1.4c0.3,0,0.6-0.1,0.8-0.4
	c2-2.2,3.1-5,3.1-8c0.5,0.4,1.2,0.3,1.6-0.2c0.1-0.1,0.2-0.3,0.2-0.5c0.8-4.6,0.1-9.3-1.8-12.5C340.2,179.4,340.7,176.6,339.6,174.1
	L339.6,174.1z M338.6,174.5c1.5,3.6-1,7.3-3.2,10.4c-0.3-0.6-0.6-1.1-0.9-1.6c2.3-2.4,3.5-5.2,2.3-8.3c-0.2-0.4-0.5-0.7-0.9-0.9
	l0.3-0.2c0.4-0.3,0.9-0.3,1.4-0.2C338,173.8,338.4,174.1,338.6,174.5L338.6,174.5z M316.9,200.2c-1-1.5-0.5-3.5,1-4.4
	c0.1,0,0.1-0.1,0.2-0.1c0.2,0.2,4.5,2.8,4.6,2.8c0,1.7-1.4,3.1-3.1,3.1c-0.8,0-1.6-0.3-2.1-0.8C317.3,200.6,317.1,200.4,316.9,200.2
	L316.9,200.2z M323.2,193.3c1.5,0,3,0.2,4.4,0.6c0.1,0.1,0.1,0.1,0.1,0.2c0,0.3,0,0.6-0.1,0.7l-4.4,2.7l-4.5-2.7
	c-0.1-0.1-0.1-0.3-0.1-0.6c0-0.1,0-0.2,0.1-0.2C320.2,193.7,321.7,193.4,323.2,193.3L323.2,193.3z M328.4,195.7
	c1.5,0.9,2.1,2.8,1.2,4.4c0,0.1-0.1,0.1-0.1,0.2c-0.2,0.2-0.4,0.4-0.5,0.6c-1.2,1.2-3.2,1.1-4.4-0.1c-0.5-0.6-0.8-1.3-0.8-2.1
	C323.8,198.5,328.2,195.9,328.4,195.7z M328.9,194.7v-0.5c0-0.6-0.4-1.1-0.9-1.3l-0.6-0.1l-1.1-4.1l0.8-0.2c0.5,0.9,1.4,1.5,2.5,1.5
	c1.6,0,2.8-1.3,2.8-2.8c0.2,0,0.4-0.1,0.5-0.3c0.1-0.2,0.1-0.3,0-0.5l-0.6-1.1c-0.2-0.2-0.5-0.3-0.7-0.2c-0.3,0.1-0.4,0.4-0.3,0.7
	l0.2,0.5l-5.5,1.4c-0.3,0.1-0.6,0.3-0.7,0.5c-0.1,0.3-0.2,0.6-0.1,0.9l1,3.5c-1.9-0.4-3.8-0.3-5.7,0.1l1-3.6
	c0.1-0.3,0.1-0.6-0.1-0.9c-0.2-0.3-0.4-0.5-0.7-0.5l-5.5-1.4l0.2-0.5c0.1-0.2,0.1-0.4,0-0.6c-0.1-0.2-0.3-0.3-0.5-0.3
	c-0.2,0-0.4,0.2-0.5,0.4l-0.6,1.1c-0.2,0.3-0.1,0.6,0.2,0.8c0,0,0.1,0,0.2,0.1h0.1c0,1.6,1.3,2.8,2.8,2.8c1,0,2-0.6,2.5-1.5l0.8,0.2
	l-1.2,4.1l-0.6,0.1c-0.6,0.2-1,0.7-1,1.3v0.5c-1.4,0.8-2.3,2.3-2.3,3.9c-1.1-1.2-2-2.4-2.8-3.8c0.7,0.2,1.5,0.3,2.3,0.3
	c0.3,0,0.6-0.3,0.6-0.6c0-0.3-0.3-0.6-0.6-0.6c-1,0.1-2.1-0.2-3-0.6c-0.3-0.8-0.6-1.7-0.7-2.6c1.2,1.3,2.9,2,4.7,2.1
	c0.3,0,0.6-0.3,0.6-0.6c0-0.3-0.3-0.6-0.6-0.6c-2-0.1-3.8-1.3-4.8-3c0-0.3,0.1-0.6,0.2-0.9c0.5,0.6,1.1,0.9,1.8,1
	c0.3,0,0.6-0.2,0.6-0.5s-0.2-0.6-0.5-0.6c0,0-0.1,0-0.2,0c-0.4,0-1-0.6-1.4-1.2c1.7-4.7,6-8,11-8.4v2.8l-2.5-1.1
	c-0.3-0.1-0.6,0-0.8,0.2c-0.1,0.1-0.1,0.2-0.1,0.4c0,0.2,0.2,0.4,0.4,0.4l3,1.3v1.9l-6.1-0.9c-0.2,0-0.4,0.1-0.5,0.2
	c-0.1,0.2-0.2,0.4-0.1,0.6c0.1,0.2,0.2,0.3,0.4,0.4l6.3,0.9v0.6c0,0.3,0.3,0.6,0.6,0.6c0.3,0,0.6-0.3,0.6-0.6v-0.6l6.3-0.9
	c0.3,0,0.5-0.3,0.5-0.6s-0.3-0.5-0.6-0.5l0,0l-6.1,0.9v-1.9l3-1.3c0.2-0.1,0.3-0.3,0.4-0.5c0-0.3-0.2-0.6-0.5-0.6
	c-0.1,0-0.2,0-0.3,0.1l-2.6,1.1v-2.9c5,0.3,9.4,3.6,11,8.4c-0.4,0.6-1,1.2-1.4,1.2c-0.3,0-0.6,0.2-0.6,0.5s0.2,0.6,0.5,0.6
	c0,0,0.1,0,0.2,0c0.7-0.1,1.3-0.4,1.8-1c0.1,0.3,0.1,0.6,0.1,0.9c-1,1.7-2.8,2.8-4.7,2.9c-0.3,0-0.6,0.2-0.6,0.6
	c0,0.3,0.3,0.6,0.6,0.6c1.8-0.1,3.5-0.9,4.7-2.1c-0.1,0.9-0.3,1.8-0.7,2.6c-0.9,0.5-1.9,0.7-2.9,0.6c-0.3,0-0.6,0.2-0.6,0.6
	c0,0.3,0.3,0.6,0.6,0.6c0.8,0,1.5-0.1,2.2-0.3c-0.8,1.4-1.7,2.6-2.8,3.8c0-1.6-0.8-3.1-2.3-3.9L328.9,194.7z M328.1,188.2l3-0.7
	c-0.1,0.7-0.6,1.2-1.3,1.3C329.2,188.9,328.5,188.7,328.1,188.2L328.1,188.2z M318.3,188.2c-0.6,0.7-1.7,0.9-2.4,0.3
	c-0.3-0.3-0.5-0.6-0.6-1L318.3,188.2z M310.7,175.4c0.3-0.6,1-0.5,1.5-0.2l4.8,3.4c-1.7,0.9-3.2,2.2-4.4,3.8
	C310.6,180.3,309.6,178,310.7,175.4L310.7,175.4z M333.9,182.4c-1.2-1.6-2.7-2.8-4.4-3.8l4.8-3.3c0.5-0.3,1.2-0.4,1.5,0.2
	C336.8,178,335.8,180.3,333.9,182.4L333.9,182.4z M307.9,174.6c0.3-0.8,1.3-1.2,2.1-0.9c0.1,0,0.2,0.1,0.2,0.1l0.3,0.2
	c-0.4,0.2-0.7,0.5-0.9,0.9c-1.3,3.1,0,5.9,2.3,8.4c-0.3,0.5-0.6,1.1-0.9,1.6C308.9,181.9,306.3,178.2,307.9,174.6L307.9,174.6z
	 M313.9,202.4l-1.5,1.1c-1.8-2.1-2.8-4.7-2.8-7.4c0-0.4-0.2-0.8-0.7-1c-0.4-0.2-0.8-0.1-1.1,0.2c-0.7-3.8-0.3-7.7,1.4-11.3
	c1.3,1.9,1.5,2,1.4,2.2c-0.2,0.6-0.4,1.2-0.6,1.9c0,0.2,0,0.6,0,0.7c-0.4,5.6,3.9,9.9,5.8,11.8l0.3,0.3c0.1,0.2,0.3,0.4,0.5,0.6
	c0.3,0.5,0.4,1.1,0.3,1.6c-0.7-0.4-1.4-0.7-1.9-0.9C314.6,202.1,314.2,202.2,313.9,202.4L313.9,202.4z M317.9,203.8
	c0.1-0.4,0.1-0.8,0.1-1.2c2,0.8,4.2,0,5.3-1.9c1,1.9,3.3,2.7,5.3,1.9c0,0.4,0,0.8,0.1,1.2C325.3,205.7,321.2,205.7,317.9,203.8
	L317.9,203.8z M337.4,184.1c1.6,3.5,2.1,7.5,1.4,11.3c-0.3-0.4-1-0.5-1.4-0.2c-0.3,0.2-0.4,0.6-0.4,0.9c0,2.7-1,5.4-2.8,7.4
	l-1.5-1.2c-0.3-0.2-0.8-0.3-1.1-0.1c-0.4,0.2-1.1,0.5-1.9,0.9c-0.1-0.6,0-1.1,0.3-1.6c0.2-0.2,0.3-0.4,0.5-0.6l0.3-0.3
	c2-2,7.4-7.4,5.3-14.1C335.9,186,335.6,186.7,337.4,184.1L337.4,184.1z"/>
<path class="st11" d="M304.4,218.9"/>
</svg>
