<?xml version="1.0" encoding="utf-8"?>
<!-- Generator: Adobe Illustrator 24.2.3, SVG Export Plug-In . SVG Version: 6.00 Build 0)  -->
<svg version="1.1" id="Layer_1" xmlns="http://www.w3.org/2000/svg" xmlns:xlink="http://www.w3.org/1999/xlink" x="0px" y="0px"
	 viewBox="0 0 425.2 425.2" style="enable-background:new 0 0 425.2 425.2;" xml:space="preserve">
<style type="text/css">
	.st0{fill:#2A77BD;stroke:#FFFFFF;stroke-miterlimit:10;}
	.st1{fill:#F15F24;stroke:#FFFFFF;stroke-miterlimit:10;}
	.st2{fill:none;stroke:#FFFFFF;stroke-width:3;stroke-miterlimit:10;}
	.st3{fill:#F9F9FA;stroke:#FFFFFF;stroke-width:3;stroke-miterlimit:10;}
	.st4{fill:#27265F;stroke:#FFFFFF;stroke-miterlimit:10;}
	.st5{clip-path:url(#SVGID_2_);}
	.st6{fill:#BFBFBF;stroke:#FFFFFF;stroke-miterlimit:10;}
	.st7{fill:#FFFFFF;stroke:#FFFFFF;stroke-width:2;stroke-miterlimit:10;}
	.st8{fill:none;stroke:#FFFFFF;stroke-width:5;stroke-miterlimit:10;}
	.st9{fill:#FFFFFF;stroke:#FFFFFF;stroke-miterlimit:10;}
	.st10{fill:#26265F;}
	.st11{fill:#FFFFFF;}
	.st12{font-family:'Oswald-Light';}
	.st13{font-size:2.13px;}
	.st14{fill:none;stroke:#FFFFFF;stroke-miterlimit:10;}
	.st15{font-family:'Oswald-Regular';}
	.st16{font-size:3.2px;}
	.st17{font-family:'Oswald-Medium';}
	.st18{font-size:41.03px;}
	.st19{font-size:18.77px;}
</style>
<circle class="st0" cx="100" cy="206.3" r="91.8"/>
<path class="st1" d="M100,114.5c-50.5,0-91.4,40.2-91.8,89.8l183.5,0.3C191.6,154.8,150.6,114.5,100,114.5z"/>
<path class="st2" d="M145.6,204.4c0,0,2.3,23-24.2,23"/>
<path class="st2" d="M156,204.5c0,0,2.6,31.2-32.5,31.2"/>
<polygon class="st3" points="75.1,176.1 79.8,171.4 87.5,179.1 80.1,183.8 "/>
<polygon class="st3" points="116.9,176.6 121.6,172 129.3,179.7 121.9,184.4 "/>
<path class="st2" d="M66.4,204.4c0,0-1.2,15,14.9,15l37.6,0.1c16.8,0,16.2-14.9,16.2-14.9"/>
<path class="st2" d="M56,204.3c0,0-2.5,23,23,23"/>
<path class="st2" d="M45.6,204.4c0,0-2.5,31.2,31.2,31.2"/>
<polygon class="st4" points="33.2,204.3 33.2,176.1 56.2,153.1 79,175.9 89.6,165.3 100.6,176.4 111.5,165.5 122.8,176.7 
	145.6,153.9 166.8,175 166.8,204.6 "/>
<g>
	<defs>
		<circle id="SVGID_1_" cx="100" cy="206.3" r="91.8"/>
	</defs>
	<clipPath id="SVGID_2_">
		<use xlink:href="#SVGID_1_"  style="overflow:visible;"/>
	</clipPath>
	<g class="st5">
		<polyline class="st6" points="61.2,298.6 83.7,204.6 117.4,204.6 139.8,300.3 63.1,299 		"/>
		<line class="st2" x1="45.6" y1="208.3" x2="8.3" y2="208.3"/>
		<line class="st2" x1="46.5" y1="213.9" x2="9.8" y2="223"/>
		<line class="st2" x1="49.3" y1="221.5" x2="14" y2="239"/>
		<line class="st2" x1="53.6" y1="227.4" x2="24.1" y2="257.8"/>
		<line class="st2" x1="62.3" y1="233.1" x2="41.6" y2="277.1"/>
		<line class="st2" x1="156.6" y1="208.3" x2="193.9" y2="208.3"/>
		<line class="st2" x1="155.6" y1="213.9" x2="192.4" y2="223"/>
		<line class="st2" x1="152.8" y1="221.5" x2="188.2" y2="239"/>
		<line class="st2" x1="148.6" y1="227.4" x2="178.1" y2="257.8"/>
		<line class="st2" x1="139.8" y1="233.1" x2="160.5" y2="277.1"/>
		<polygon class="st7" points="51.7,288 74.9,272.4 82.4,277 97,271.4 105.6,276.6 116,270 134.5,282.2 139,280 148.3,290 52.4,290 
					"/>
		<polygon class="st7" points="52.3,288.9 75.2,281 82.6,283.3 97,280.5 105.4,283.2 115.7,279.8 133.9,286 138.4,284.9 
			147.7,299.4 53,298 		"/>
	</g>
</g>
<circle class="st8" cx="100" cy="206.3" r="91.8"/>
<rect x="83.7" y="185.5" class="st9" width="33.7" height="19.1"/>
<polygon class="st9" points="56.2,158.4 44.7,169.1 67.6,169.1 "/>
<polygon class="st9" points="145.6,158.4 134.1,169.1 157,169.1 "/>
<rect x="44.4" y="181.2" class="st9" width="2.5" height="23.2"/>
<rect x="65.1" y="181.3" class="st9" width="2.5" height="23.2"/>
<rect x="54.8" y="181.2" class="st9" width="2.5" height="23.2"/>
<rect x="133.9" y="181.4" class="st9" width="2.5" height="23.2"/>
<rect x="154.7" y="181.4" class="st9" width="2.5" height="23.2"/>
<rect x="144.3" y="181.4" class="st9" width="2.5" height="23.2"/>
<rect x="36.9" y="180.8" class="st9" width="126.1" height="1.2"/>
<path class="st2" d="M84,176.2l4.8-4.8c0.5-0.5,1.2-0.5,1.7,0l4.8,4.8"/>
<path class="st2" d="M106.1,176.2l4.8-4.8c0.5-0.5,1.2-0.5,1.7,0l4.8,4.8"/>
<path class="st10" d="M99.7,252c22.6,0,20.7-50.3,20.7-50.3l-20.1-4.3l-20.7,4.3c0,0-1.9,50.3,20.7,50.3"/>
<path class="st2" d="M99.7,252c22.6,0,20.7-50.3,20.7-50.3l-20.1-4.3l-20.7,4.3c0,0-1.9,50.3,20.7,50.3"/>
<line class="st2" x1="83.4" y1="235.5" x2="116.4" y2="235.5"/>
<text transform="matrix(1 0 0 1 91.05 241.13)" class="st11 st12 st13">SOIS BELLE </text>
<text transform="matrix(1 0 0 1 91.05 241.13)" class="st14 st12 st13">SOIS BELLE </text>
<text transform="matrix(1 0 0 1 99.86 241.13)" class="st11 st12 st13">A</text>
<text transform="matrix(1 0 0 1 99.86 241.13)" class="st14 st12 st13">A</text>
<text transform="matrix(1 0 0 1 100.76 241.13)" class="st11 st12 st13">’ </text>
<text transform="matrix(1 0 0 1 100.76 241.13)" class="st14 st12 st13">’ </text>
<text transform="matrix(1 0 0 1 101.56 241.13)" class="st11 st12 st13">T</text>
<text transform="matrix(1 0 0 1 101.56 241.13)" class="st14 st12 st13">T</text>
<text transform="matrix(1 0 0 1 102.39 241.13)" class="st11 st12 st13">A </text>
<text transform="matrix(1 0 0 1 102.39 241.13)" class="st14 st12 st13">A </text>
<text transform="matrix(1 0 0 1 103.84 241.13)" class="st11 st12 st13">F</text>
<text transform="matrix(1 0 0 1 103.84 241.13)" class="st14 st12 st13">F</text>
<text transform="matrix(1 0 0 1 104.59 241.13)" class="st11 st12 st13">ACON</text>
<text transform="matrix(1 0 0 1 104.59 241.13)" class="st14 st12 st13">ACON</text>
<text transform="matrix(1 0 0 1 93.67 245.06)" class="st11 st15 st16">MCMLXXVI</text>
<text transform="matrix(1 0 0 1 93.67 245.06)" class="st14 st15 st16">MCMLXXVI</text>
<path id="Shape" class="st9" d="M112.6,206.8c-0.4-1.1-1.7-1.6-2.8-1.2c-0.1,0-0.2,0.1-0.3,0.2l-5.6,3.9c-2.5-1.1-5.3-1.1-7.8,0
	l-5.6-4c-0.5-0.3-1.2-0.4-1.8-0.2c-0.6,0.2-1.1,0.6-1.3,1.2c-0.8,2-0.4,4.1,1.2,6.8c-1.5,2.9-2,6.3-1.4,9.6c0.1,0.5,0.5,0.8,1,0.7
	c0.1,0,0.3-0.1,0.4-0.2c0,2.3,0.9,4.5,2.4,6.2c0.2,0.2,0.4,0.3,0.6,0.3c0.4,0,0.4-0.1,1.7-1c0.6,0.3,1.3,0.6,1.9,0.9
	c2.9,1.9,6.7,1.9,9.6,0c0.2-0.1,0.7-0.4,1.9-0.9c1.3,0.9,1.3,1,1.7,1c0.2,0,0.5-0.1,0.6-0.3c1.5-1.7,2.4-3.9,2.4-6.1
	c0.2,0.2,0.6,0.2,0.8,0.1c0.3-0.1,0.5-0.4,0.5-0.7c0.7-3.3,0.2-6.7-1.4-9.6C113,210.9,113.3,208.8,112.6,206.8L112.6,206.8z
	 M111.8,207.1c1.1,2.8-0.8,5.6-2.4,8c-0.2-0.4-0.4-0.9-0.7-1.3c1.8-1.8,2.7-4,1.7-6.4c-0.1-0.3-0.4-0.6-0.7-0.7l0.2-0.2
	c0.3-0.2,0.7-0.2,1-0.1C111.3,206.6,111.6,206.8,111.8,207.1L111.8,207.1z M95.2,226.8c-0.7-1.2-0.4-2.7,0.8-3.4c0,0,0.1,0,0.1-0.1
	c0.2,0.1,3.5,2.2,3.5,2.2c0,1.3-1.1,2.4-2.4,2.4c-0.6,0-1.2-0.2-1.6-0.6C95.4,227.1,95.3,226.9,95.2,226.8L95.2,226.8z M100,221.5
	c1.1,0,2.3,0.2,3.4,0.5c0,0,0.1,0.1,0.1,0.2c0,0.3,0,0.5-0.1,0.5l-3.4,2.1l-3.4-2.1c-0.1,0-0.1-0.3-0.1-0.5c0-0.1,0-0.1,0.1-0.2
	C97.7,221.8,98.8,221.6,100,221.5L100,221.5z M104,223.4c0.6,0.3,1,0.9,1.2,1.6c0.2,0.7,0,1.3-0.3,1.9c-0.1,0.1-0.3,0.3-0.4,0.5
	c-1,0.9-2.5,0.9-3.4-0.1c-0.4-0.4-0.7-1-0.6-1.6C100.5,225.6,103.8,223.5,104,223.4L104,223.4z M104.3,222.6v-0.4
	c0-0.5-0.3-0.9-0.7-1l-0.5-0.1l-0.9-3.1l0.6-0.1c0.4,0.7,1.1,1.2,1.9,1.2c1.2,0,2.1-1,2.2-2.2c0.2,0,0.3-0.1,0.4-0.3
	c0.1-0.1,0.1-0.3,0-0.4l-0.4-0.9c-0.1-0.2-0.4-0.3-0.6-0.2c-0.2,0.1-0.3,0.4-0.2,0.6l0.2,0.4l-4.3,1c-0.2,0.1-0.4,0.2-0.5,0.4
	c-0.1,0.2-0.1,0.4-0.1,0.7l0.8,2.7c-1.4-0.3-2.9-0.3-4.4,0.1l0.7-2.8c0.1-0.2,0-0.5-0.1-0.7c-0.1-0.2-0.3-0.3-0.6-0.4l-4.2-1
	l0.2-0.4c0.1-0.2,0.1-0.5-0.2-0.6c-0.1,0-0.2-0.1-0.3-0.1c-0.2,0-0.3,0.1-0.4,0.3l-0.4,0.9c-0.1,0.1-0.1,0.3,0,0.4
	c0.1,0.1,0.2,0.2,0.3,0.2h0.1c0,1.2,1,2.2,2.2,2.2c0.8,0,1.5-0.4,1.9-1.1l0.6,0.1l-0.9,3.2l-0.4,0.1c-0.5,0.1-0.8,0.5-0.8,1v0.4
	c-1.1,0.6-1.8,1.8-1.7,3c-0.8-0.9-1.6-1.9-2.2-2.9c0.6,0.2,1.1,0.2,1.7,0.2c0.2,0,0.4-0.2,0.4-0.4c0-0.2-0.2-0.4-0.4-0.4
	c-0.8,0-1.6-0.1-2.3-0.5c-0.3-0.6-0.4-1.3-0.5-2c0.9,1,2.2,1.6,3.6,1.6c0.2,0,0.4-0.2,0.4-0.4c0-0.2-0.2-0.4-0.4-0.4
	c-1.5-0.1-2.9-0.9-3.7-2.3c0-0.2,0-0.5,0.1-0.7c0.3,0.4,0.8,0.7,1.4,0.8c0.2,0,0.4-0.2,0.4-0.4c0-0.2-0.2-0.4-0.4-0.4
	c-0.3,0-0.8-0.5-1.1-0.9c1.3-3.6,4.6-6.2,8.4-6.4v2.1l-2-0.8c-0.1-0.1-0.3-0.1-0.4,0c-0.1,0.1-0.2,0.3-0.2,0.4
	c0,0.2,0.1,0.3,0.3,0.3l2.3,1v1.5l-4.7-0.7c-0.2,0-0.3,0-0.4,0.2c-0.1,0.1-0.1,0.3-0.1,0.4c0.1,0.1,0.2,0.2,0.3,0.3l4.8,0.7v0.4
	c0,0.2,0.2,0.4,0.4,0.4c0.2,0,0.4-0.2,0.4-0.4v-0.4l4.8-0.7c0.2,0,0.4-0.3,0.4-0.5c0-0.2-0.3-0.4-0.5-0.4l-4.7,0.7V213l2.3-1
	c0.2-0.1,0.3-0.3,0.3-0.6c0-0.1-0.1-0.1-0.1-0.2c-0.1-0.1-0.3-0.1-0.4,0l-2,0.9v-2.2c3.9,0.2,7.2,2.8,8.4,6.4
	c-0.3,0.4-0.8,0.9-1.1,0.9c-0.2,0-0.4,0.2-0.4,0.4c0,0.2,0.2,0.4,0.4,0.4c0.5-0.1,1-0.3,1.4-0.8c0,0.2,0.1,0.4,0.1,0.7
	c-0.8,1.3-2.1,2.2-3.6,2.3c-0.2,0-0.4,0.2-0.4,0.4c0,0.2,0.2,0.4,0.4,0.4l0,0c1.4-0.1,2.7-0.6,3.6-1.6c-0.1,0.7-0.3,1.4-0.5,2
	c-0.7,0.4-1.5,0.5-2.2,0.5c-0.2,0-0.4,0.2-0.4,0.4c0,0.2,0.2,0.4,0.4,0.4c0.6,0,1.2-0.1,1.7-0.2c-0.6,1.1-1.3,2-2.1,2.9
	C106.1,224.3,105.4,223.2,104.3,222.6L104.3,222.6z M103.8,217.6l2.2-0.6c-0.1,0.7-0.8,1.2-1.5,1C104.2,218,103.9,217.8,103.8,217.6
	L103.8,217.6z M96.3,217.6c-0.5,0.6-1.3,0.6-1.8,0.2c-0.2-0.2-0.4-0.5-0.5-0.8L96.3,217.6z M90.4,207.8c0.2-0.4,0.7-0.4,1.1-0.1
	l3.7,2.6c-1.3,0.7-2.4,1.7-3.3,2.9C90.4,211.5,89.6,209.8,90.4,207.8L90.4,207.8z M108.2,213.1c-0.9-1.2-2-2.2-3.3-2.9l3.7-2.5
	c0.4-0.3,0.9-0.3,1.1,0.1C110.4,209.8,109.6,211.5,108.2,213.1L108.2,213.1z M88.3,207.1c0.3-0.6,1-0.9,1.6-0.7
	c0.1,0,0.1,0.1,0.2,0.1l0.3,0.2c-0.3,0.1-0.6,0.4-0.7,0.7c-1,2.4,0,4.6,1.8,6.4c-0.3,0.4-0.5,0.8-0.7,1.3
	C89,212.8,87.1,209.9,88.3,207.1L88.3,207.1z M92.8,228.5l-1.1,0.9c-1.4-1.6-2.2-3.6-2.2-5.7c0-0.3-0.2-0.6-0.5-0.7
	c-0.3-0.1-0.6,0-0.9,0.2c-0.6-2.9-0.2-5.9,1.1-8.6c0.9,1.4,1.1,1.6,1.1,1.7c-0.2,0.5-0.3,1-0.4,1.4c0,0.1,0,0.5,0,0.5
	c-0.3,4.3,3,7.6,4.4,9l0.3,0.3c0.1,0.2,0.2,0.3,0.4,0.5c0.2,0.4,0.3,0.8,0.2,1.3c-0.6-0.3-1.1-0.6-1.4-0.7
	C93.5,228.2,93.1,228.3,92.8,228.5L92.8,228.5z M95.9,229.5c0.1-0.3,0.1-0.7,0.1-1c1.5,0.6,3.2,0,4-1.4c0.8,1.4,2.5,2,4,1.4
	c0,0.3,0,0.7,0.1,1C101.6,231,98.4,231,95.9,229.5L95.9,229.5z M110.9,214.5c1.2,2.7,1.6,5.7,1.1,8.7c-0.2-0.2-0.6-0.3-0.9-0.2
	c-0.3,0.1-0.5,0.4-0.5,0.7c0,2.1-0.8,4.1-2.2,5.7l-1.1-0.9c-0.2-0.2-0.6-0.2-0.9-0.1c-0.3,0.1-0.9,0.4-1.4,0.7
	c-0.1-0.4,0-0.9,0.2-1.3c0.1-0.1,0.3-0.3,0.4-0.5l0.3-0.3c1.6-1.6,5.7-5.6,4-10.8C109.7,215.9,109.5,216.4,110.9,214.5L110.9,214.5z
	"/>
<rect x="226.6" y="126.9" class="st11" width="6.6" height="158.7"/>
<text transform="matrix(1 0 0 1 259.85 182.53)" class="st11 st17 st18">Cape </text>
<text transform="matrix(1 0 0 1 259.85 231.77)" class="st11 st17 st18">Kingstone</text>
<text transform="matrix(1 0 0 1 262.09 263.23)" class="st11 st12 st19">High School</text>
</svg>
